<svg id="Layer_1" data-name="Layer 1" xmlns="http://www.w3.org/2000/svg" viewBox="0 0 510 135.5"><defs><style>.cls-1,.cls-2{fill:#70ccb1;}.cls-2{font-size:72px;font-family:MyriadPro-Regular, Myriad Pro;letter-spacing:-0.02em;}.cls-3{letter-spacing:-0.01em;}.cls-4{letter-spacing:-0.03em;}.cls-5{letter-spacing:0em;}</style></defs><title>logo final text</title><ellipse class="cls-1" cx="62" cy="36.71" rx="7.48" ry="7.45"/><path class="cls-1" d="M7074.22,7201l-8.47.47-3.3.19a.17.17,0,0,1,0-.07,13.64,13.64,0,0,1-4.6,3.91,14.7,14.7,0,0,1-13.57,0,13.19,13.19,0,0,1-6.35-7.27,12,12,0,0,1-.67-4,12.28,12.28,0,0,1,2.66-7.61,13.88,13.88,0,0,1,7.44-4.83,14.48,14.48,0,0,1,3.25-.46l.7-1.66,3.27-7.69,1.1-2.59.84-2a38.76,38.76,0,0,0-6.25-.51,34.72,34.72,0,0,0-15.81,3.67c-9.45,4.82-15,13.53-15.33,21.1-.22,5.31,2.27,12.13,5.57,19.78,0,.08.07.16.1.23q.89,2.07,1.85,4.21c.76,1.73,1.55,3.49,2.34,5.28,1.23,2.79,2.81,6.17,4.59,9.68.7,1.39,1.44,2.81,2.2,4.22,1.47,2.71,3,5.39,4.6,7.85.82,1.28,1.65,2.5,2.47,3.62l.83,1.11c.8,1,1.58,2,2.36,2.77,2.06,2.16,4,3.49,5.76,3.49,1.41,0,3.1-1.38,4.91-3.61.68-.84,1.38-1.81,2.09-2.86.25-.37.5-.76.75-1.15.74-1.17,1.49-2.43,2.23-3.76,1.37-2.42,2.72-5,4-7.68.68-1.41,1.35-2.83,2-4.22q.48-1,.93-2.07l-.14,0c.6-1.24,1.18-2.48,1.74-3.71.78-1.83,1.47-3.51,2-5s1.19-3,1.76-4.41c.73-1.81,1.43-3.5,2.08-5.08l0-.05c1.51-3.69,2.76-6.84,3.67-9.73l-3.3.19Z" transform="translate(-6989.22 -7157.55)"/><path class="cls-1" d="M7088.65,7176.32a43.11,43.11,0,0,0-20.64-18.77l-2.4,5.12-.32.67a35.86,35.86,0,0,1,9.29,5.81l.94.85-.94-.85a46.43,46.43,0,0,1,6.61,7.57h0c.54.83,1.05,1.68,1.52,2.56a34.3,34.3,0,0,1,4.27,15.32l1.66-.21,4.95-.63A41.24,41.24,0,0,0,7088.65,7176.32Zm-9.68-2.64c.46.56.9,1.14,1.32,1.73C7079.87,7174.82,7079.43,7174.24,7079,7173.68Z" transform="translate(-6989.22 -7157.55)"/><path class="cls-1" d="M7063.68,7166.77l-3.23,6.91A27.12,27.12,0,0,1,7075.6,7196l7.61-1a34.14,34.14,0,0,0-4-13.47A35.82,35.82,0,0,0,7063.68,7166.77Z" transform="translate(-6989.22 -7157.55)"/><path class="cls-1" d="M7064.6,7194.48a20,20,0,0,1,.64,2.88l6.67-.85a27.23,27.23,0,0,0-13.2-19.14l-2.74,5.85c.23.15.47.29.7.45A20.34,20.34,0,0,1,7064.6,7194.48Z" transform="translate(-6989.22 -7157.55)"/><text class="cls-2" transform="translate(111.97 89.62)">W<tspan class="cls-3" x="59.4" y="0">i-</tspan><tspan class="cls-4" x="97.63" y="0">F</tspan><tspan class="cls-5" x="130.46" y="0">inder</tspan></text></svg>