<svg id="Layer_1" data-name="Layer 1" xmlns="http://www.w3.org/2000/svg" viewBox="0 0 242.99 64.56"><defs><style>.cls-1,.cls-2{fill:#70ccb1;}.cls-2{font-size:34.3px;font-family:MyriadPro-Regular, Myriad Pro;letter-spacing:-0.02em;}.cls-3{letter-spacing:-0.01em;}.cls-4{letter-spacing:-0.03em;}.cls-5{letter-spacing:0em;}</style></defs><title>logo final text 200x200</title><ellipse class="cls-1" cx="29.54" cy="17.49" rx="3.56" ry="3.55"/><path class="cls-1" d="M7137.69,7190.68l-4,.23-1.58.08v0a6.59,6.59,0,0,1-2.19,1.86,7,7,0,0,1-6.46,0,6.23,6.23,0,0,1-3-3.46,5.68,5.68,0,0,1-.32-1.89,5.85,5.85,0,0,1,1.27-3.63,6.63,6.63,0,0,1,3.54-2.3,7.24,7.24,0,0,1,1.55-.22l.34-.79,1.55-3.66.53-1.23.4-.94a18.25,18.25,0,0,0-3-.24,16.47,16.47,0,0,0-7.53,1.75c-4.51,2.29-7.16,6.44-7.31,10.05-.1,2.53,1.08,5.78,2.66,9.42l0,.12.88,2c.37.82.74,1.66,1.12,2.52.59,1.32,1.34,2.93,2.19,4.61q.49,1,1.05,2c.69,1.29,1.44,2.57,2.19,3.74.39.6.78,1.19,1.17,1.72l.4.53c.38.49.75.93,1.12,1.32a4.36,4.36,0,0,0,2.75,1.66c.67,0,1.48-.65,2.34-1.72.32-.4.66-.86,1-1.36l.36-.55c.35-.55.71-1.16,1.06-1.79.65-1.15,1.3-2.4,1.91-3.66.33-.67.64-1.35.95-2l.44-1H7135c.29-.59.56-1.18.83-1.77.37-.87.7-1.67,1-2.36s.57-1.44.84-2.1l1-2.43v0c.72-1.75,1.31-3.25,1.74-4.63l-1.57.09Z" transform="translate(-7097.19 -7169.97)"/><path class="cls-1" d="M7144.56,7178.92a20.56,20.56,0,0,0-9.84-8.95l-1.14,2.44-.15.32a17.28,17.28,0,0,1,4.42,2.77c.16.13.31.27.45.4-.14-.13-.29-.27-.45-.4a21.93,21.93,0,0,1,3.15,3.61h0a13.56,13.56,0,0,1,.73,1.22,16.38,16.38,0,0,1,2,7.3l.79-.1,2.36-.3A19.68,19.68,0,0,0,7144.56,7178.92Zm-4.61-1.26c.22.27.42.54.63.82C7140.37,7178.2,7140.17,7177.93,7140,7177.66Z" transform="translate(-7097.19 -7169.97)"/><path class="cls-1" d="M7132.66,7174.37l-1.54,3.29a12.92,12.92,0,0,1,7.22,10.65l3.63-.46a16.26,16.26,0,0,0-1.91-6.41A17,17,0,0,0,7132.66,7174.37Z" transform="translate(-7097.19 -7169.97)"/><path class="cls-1" d="M7133.1,7187.57a8.18,8.18,0,0,1,.3,1.37l3.18-.4a13,13,0,0,0-6.28-9.12l-1.31,2.78.33.22A9.7,9.7,0,0,1,7133.1,7187.57Z" transform="translate(-7097.19 -7169.97)"/><text class="cls-2" transform="translate(53.35 42.7)">W<tspan class="cls-3" x="28.3" y="0">i-</tspan><tspan class="cls-4" x="46.52" y="0">F</tspan><tspan class="cls-5" x="62.16" y="0">inder</tspan></text></svg>