<svg id="Layer_1" data-name="Layer 1" xmlns="http://www.w3.org/2000/svg" viewBox="0 0 194.88 186.12"><defs><style>.cls-1,.cls-2{fill:#70ccb1;}.cls-2{font-size:27.51px;font-family:MyriadPro-Regular, Myriad Pro;letter-spacing:-0.02em;}.cls-3{letter-spacing:0em;}.cls-4{letter-spacing:-0.03em;}.cls-5{letter-spacing:-0.01em;}</style></defs><title>LogoFinal2 Text</title><ellipse class="cls-1" cx="94.64" cy="53.55" rx="10.92" ry="10.86"/><path class="cls-1" d="M7230.26,7173.85l-12.36.69-4.83.28s0-.08,0-.11a20,20,0,0,1-6.7,5.71,21.42,21.42,0,0,1-19.8,0,19.24,19.24,0,0,1-9.27-10.61,17.48,17.48,0,0,1-1-5.8,17.89,17.89,0,0,1,3.89-11.09,20.24,20.24,0,0,1,10.85-7.05,21.59,21.59,0,0,1,4.74-.68l1-2.42,4.77-11.21,1.6-3.77,1.22-2.87a56.6,56.6,0,0,0-9.12-.74,50.45,50.45,0,0,0-23.06,5.36c-13.79,7-21.9,19.74-22.37,30.78-.32,7.74,3.32,17.69,8.13,28.85l.14.35c.87,2,1.77,4.05,2.7,6.13,1.12,2.52,2.27,5.1,3.42,7.71,1.8,4.07,4.09,9,6.69,14.12,1,2,2.11,4.1,3.22,6.15,2.14,4,4.4,7.87,6.71,11.45,1.19,1.87,2.4,3.65,3.6,5.3l1.21,1.6a52.89,52.89,0,0,0,3.44,4.05c3,3.16,5.89,5.09,8.41,5.09,2.06,0,4.53-2,7.17-5.27,1-1.23,2-2.63,3-4.17.36-.54.72-1.1,1.09-1.68,1.08-1.7,2.18-3.55,3.26-5.48,2-3.53,4-7.36,5.84-11.21,1-2.06,2-4.12,2.9-6.15l1.36-3-.21,0c.87-1.81,1.71-3.61,2.54-5.41,1.14-2.67,2.14-5.13,3-7.23.88-2.27,1.74-4.41,2.57-6.44q1.6-4,3-7.42l0-.07c2.2-5.38,4-10,5.35-14.19l-4.81.27Z" transform="translate(-7102.06 -7110.44)"/><path class="cls-1" d="M7251.31,7137.84a63,63,0,0,0-30.12-27.4l-3.5,7.47-.47,1a51.88,51.88,0,0,1,13.55,8.47c.47.41.93.82,1.38,1.24-.45-.42-.91-.83-1.38-1.24a67.2,67.2,0,0,1,9.65,11h0c.79,1.22,1.53,2.46,2.22,3.74a50,50,0,0,1,6.22,22.35l2.42-.31,7.23-.91A60.27,60.27,0,0,0,7251.31,7137.84Zm-14.12-3.86c.67.82,1.3,1.66,1.91,2.52C7238.49,7135.64,7237.86,7134.8,7237.19,7134Z" transform="translate(-7102.06 -7110.44)"/><path class="cls-1" d="M7214.88,7123.9l-4.73,10.07a39.6,39.6,0,0,1,22.12,32.64l11.1-1.41a50,50,0,0,0-5.85-19.66A52.36,52.36,0,0,0,7214.88,7123.9Z" transform="translate(-7102.06 -7110.44)"/><path class="cls-1" d="M7216.22,7164.33a28.46,28.46,0,0,1,.92,4.19l9.74-1.23a39.73,39.73,0,0,0-19.25-27.92l-4,8.53c.35.22.69.42,1,.65A29.73,29.73,0,0,1,7216.22,7164.33Z" transform="translate(-7102.06 -7110.44)"/><text class="cls-2" transform="translate(42.79 168.59)">W<tspan class="cls-3" x="22.7" y="0">i-</tspan><tspan class="cls-4" x="37.31" y="0">F</tspan><tspan class="cls-5" x="49.85" y="0">inder</tspan></text></svg>