<svg id="Layer_1" data-name="Layer 1" xmlns="http://www.w3.org/2000/svg" viewBox="0 0 108.67 140.65"><defs><style>.cls-1{fill:#70ccb1;}</style></defs><title>LogoFinal2 No Text</title><ellipse class="cls-1" cx="46.85" cy="53.55" rx="10.92" ry="10.86"/><path class="cls-1" d="M7230.6,7186.18l-12.36.7-4.82.27a.43.43,0,0,0,0-.11,19.74,19.74,0,0,1-6.7,5.71,21.4,21.4,0,0,1-19.79,0,19.26,19.26,0,0,1-9.28-10.61,17.72,17.72,0,0,1,2.91-16.89,20.32,20.32,0,0,1,10.86-7.05,21.59,21.59,0,0,1,4.73-.67l1-2.42,4.77-11.21,1.61-3.78,1.22-2.87a56.79,56.79,0,0,0-9.12-.73,50.42,50.42,0,0,0-23.06,5.35c-13.79,7-21.91,19.74-22.37,30.78-.33,7.75,3.31,17.69,8.12,28.86l.15.34q1.31,3,2.69,6.13c1.12,2.53,2.27,5.1,3.43,7.71,1.79,4.07,4.09,9,6.68,14.12,1,2,2.11,4.1,3.22,6.16,2.14,4,4.41,7.86,6.71,11.45,1.2,1.86,2.4,3.64,3.61,5.29.4.55.81,1.09,1.21,1.61a52.65,52.65,0,0,0,3.44,4c3,3.16,5.88,5.09,8.4,5.09,2.06,0,4.53-2,7.17-5.27,1-1.22,2-2.63,3-4.17.36-.54.73-1.1,1.09-1.67,1.09-1.71,2.18-3.55,3.27-5.48,2-3.54,4-7.37,5.84-11.22,1-2.06,2-4.12,2.89-6.15.47-1,.92-2,1.36-3l-.2,0c.87-1.8,1.71-3.61,2.54-5.4,1.13-2.68,2.13-5.14,2.95-7.24.89-2.26,1.75-4.4,2.57-6.44,1.07-2.64,2.09-5.1,3-7.42l0-.06c2.21-5.39,4-10,5.35-14.2l-4.81.27Z" transform="translate(-7150.19 -7122.77)"/><path class="cls-1" d="M7251.65,7150.17a63,63,0,0,0-30.12-27.4l-3.5,7.48-.46,1a51.82,51.82,0,0,1,13.54,8.47l1.39,1.24-1.39-1.24a67.14,67.14,0,0,1,9.65,11h0c.8,1.21,1.54,2.46,2.22,3.73a49.83,49.83,0,0,1,6.23,22.35l2.42-.3,7.23-.92A60.29,60.29,0,0,0,7251.65,7150.17Zm-14.12-3.86c.67.82,1.31,1.67,1.92,2.52C7238.84,7148,7238.2,7147.13,7237.53,7146.31Z" transform="translate(-7150.19 -7122.77)"/><path class="cls-1" d="M7215.22,7136.24l-4.72,10.07a39.57,39.57,0,0,1,22.11,32.63l11.11-1.41a50.17,50.17,0,0,0-5.85-19.65A52.33,52.33,0,0,0,7215.22,7136.24Z" transform="translate(-7150.19 -7122.77)"/><path class="cls-1" d="M7216.56,7176.66a28.62,28.62,0,0,1,.93,4.2l9.73-1.24A39.69,39.69,0,0,0,7208,7151.7l-4,8.53c.34.22.69.42,1,.65A29.63,29.63,0,0,1,7216.56,7176.66Z" transform="translate(-7150.19 -7122.77)"/></svg>